<svg width="25" height="24" viewBox="0 0 25 24" fill="none" xmlns="http://www.w3.org/2000/svg">
<path d="M17.5 7V11C17.5 13.7614 15.2614 16 12.5 16C9.73858 16 7.5 13.7614 7.5 11V7C7.5 4.23858 9.73858 2 12.5 2C15.2614 2 17.5 4.23858 17.5 7Z" stroke="#FAFAFA" stroke-width="1.5"/>
<path d="M17.5 7H14.5M17.5 11H14.5" stroke="#FAFAFA" stroke-width="1.5" stroke-linecap="round"/>
<path d="M20.5 11C20.5 15.4183 16.9183 19 12.5 19M12.5 19C8.08172 19 4.5 15.4183 4.5 11M12.5 19V22M12.5 22H15.5M12.5 22H9.5" stroke="#FAFAFA" stroke-width="1.5" stroke-linecap="round"/>
</svg>
